<?xml version="1.0" encoding="UTF-8"?>
<svg width="200mm" height="200mm" version="1.1" viewBox="0 0 200 200" xml:space="preserve" xmlns="http://www.w3.org/2000/svg"><g fill="#f00"><circle cx="34.38" cy="28.34" r="7.54" stroke-width=".9339"/><g stroke-width=".2646"><circle cx="57.92" cy="28.34" r="2.136"/><circle cx="57.92" cy="52.02" r="2.136"/><circle cx="57.92" cy="75" r="2.136"/><circle cx="34.38" cy="75" r="2.136"/></g><circle cx="34.38" cy="52.02" r="7.451" stroke-width=".9229"/><circle cx="141.8" cy="28.34" r="7.559" stroke-width=".9362"/><circle cx="165.3" cy="28.34" r="2.136" stroke-width=".2646"/><circle cx="165.3" cy="52.02" r="7.462" stroke-width=".9243"/><circle cx="165.3" cy="75" r="2.136" stroke-width=".2646"/><circle cx="141.8" cy="75" r="7.255" stroke-width=".8985"/><circle cx="141.8" cy="52.02" r="7.47" stroke-width=".9252"/><circle cx="34.38" cy="129.2" r="7.796" stroke-width=".9655"/><circle cx="57.92" cy="129.2" r="2.136" stroke-width=".2646"/><circle cx="57.92" cy="152.9" r="7.47" stroke-width=".9252"/><g stroke-width=".2646"><circle cx="57.92" cy="175.9" r="2.136"/><circle cx="34.38" cy="175.9" r="2.136"/><circle cx="34.38" cy="152.9" r="2.136"/></g><circle cx="141.8" cy="129.2" r="7.397" stroke-width=".9161"/><circle cx="165.3" cy="129.2" r="7.479" stroke-width=".9264"/><g stroke-width=".2646"><circle cx="165.3" cy="152.9" r="2.136"/><circle cx="165.3" cy="175.9" r="2.136"/><circle cx="141.8" cy="175.9" r="2.136"/></g><circle cx="141.8" cy="152.9" r="7.537" stroke-width=".9335"/></g></svg>
